<svg width="512" height="512" viewBox="0 0 512 512" fill="none" xmlns="http://www.w3.org/2000/svg">
<circle cx="256" cy="256" r="256" fill="#192A32"/>
<path d="M93.94 323.43L84.51 315.38C83.8967 314.92 83.4367 314.46 83.13 314C82.8233 313.387 82.5933 313.003 82.44 312.85L82.67 308.71L83.36 307.56C84.4333 306.947 85.7367 305.72 87.27 303.88C88.9567 302.04 92.1767 298.59 96.93 293.53L102.45 287.78C104.137 286.093 106.283 283.87 108.89 281.11C111.65 278.197 114.103 275.513 116.25 273.06C118.55 270.607 119.853 269.227 120.16 268.92C117.553 264.933 114.257 260.947 110.27 256.96C106.283 252.973 102.603 249.293 99.23 245.92C95.8567 242.547 93.6333 239.863 92.56 237.87C92.1 237.563 91.18 236.643 89.8 235.11C88.42 233.423 87.1167 231.89 85.89 230.51C84.8167 228.977 84.3567 228.44 84.51 228.9L78.99 221.08C77.4567 218.933 76.92 217.4 77.38 216.48C77.84 215.407 78.1467 213.797 78.3 211.65C78.76 211.65 79.3733 211.19 80.14 210.27C80.9067 209.35 81.4433 208.813 81.75 208.66C82.21 208.353 82.67 208.123 83.13 207.97C83.4367 207.51 84.51 206.437 86.35 204.75C88.19 203.063 90.03 201.377 91.87 199.69C93.71 198.003 94.86 196.93 95.32 196.47C100.227 192.483 103.753 189.493 105.9 187.5C108.2 185.507 110.117 183.82 111.65 182.44C113.337 180.907 115.637 179.143 118.55 177.15L125.91 176.69C126.217 176.69 126.983 176.997 128.21 177.61C129.59 178.223 130.51 178.837 130.97 179.45L145.46 195.32L159.72 209.81C160.027 210.423 160.18 210.653 160.18 210.5C160.18 211.113 160.487 211.727 161.1 212.34C161.713 212.953 162.173 213.337 162.48 213.49L163.63 213.95H163.86C164.167 213.95 164.703 214.717 165.47 216.25C166.237 217.63 167.08 218.933 168 220.16C168.92 221.233 169.687 221.463 170.3 220.85L172.6 218.09L178.81 212.57C180.037 211.497 182.107 209.503 185.02 206.59C188.087 203.523 191.383 200.303 194.91 196.93C198.437 193.403 201.58 190.26 204.34 187.5C207.1 184.74 208.863 183.053 209.63 182.44C210.397 181.06 211.163 180.37 211.93 180.37C214.077 179.603 215.687 179.527 216.76 180.14C217.987 180.753 219.06 181.52 219.98 182.44C220.9 183.36 221.897 183.897 222.97 184.05C224.81 184.97 227.187 186.733 230.1 189.34C233.013 191.793 235.927 194.553 238.84 197.62C241.753 200.687 244.207 203.677 246.2 206.59C248.347 209.35 249.573 211.497 249.88 213.03C249.727 214.87 249.19 216.25 248.27 217.17C247.503 218.09 246.277 219.623 244.59 221.77C245.05 221.463 244.59 222.153 243.21 223.84C241.983 225.527 240.373 227.52 238.38 229.82C236.387 232.12 234.47 234.267 232.63 236.26C230.943 238.1 229.87 239.173 229.41 239.48C228.183 241.013 226.113 243.237 223.2 246.15C220.44 249.063 217.833 251.747 215.38 254.2C213.08 256.653 211.7 258.11 211.24 258.57C218.907 266.083 226.037 273.137 232.63 279.73C239.223 286.323 244.437 291.307 248.27 294.68C251.643 297.9 253.713 300.583 254.48 302.73C255.247 304.877 255.4 306.563 254.94 307.79C254.48 309.017 254.097 309.937 253.79 310.55L251.72 314.23L250.57 314.69C248.117 316.99 245.357 319.597 242.29 322.51C239.223 325.423 236.31 328.183 233.55 330.79C230.79 333.397 228.49 335.543 226.65 337.23C224.963 338.917 224.12 339.76 224.12 339.76C221.053 342.213 217.91 344.207 214.69 345.74C211.623 347.273 209.017 348.193 206.87 348.5L195.6 338.61L196.29 336.77H194.91C194.757 336.923 194.603 336.847 194.45 336.54C194.297 336.233 193.913 336.003 193.3 335.85C189.467 331.097 186.017 327.34 182.95 324.58C180.037 321.82 177.43 319.52 175.13 317.68C172.983 315.687 171.143 313.617 169.61 311.47C168.23 310.09 167.31 309.247 166.85 308.94C166.543 308.633 166.697 308.633 167.31 308.94C166.083 307.56 165.24 306.717 164.78 306.41C164.473 305.95 164.167 305.72 163.86 305.72L156.73 313.08L131.2 337.92L126.83 342.06L123.61 346.2L120.39 347.58L116.94 345.51V344.36H116.48C116.02 344.36 115.713 344.437 115.56 344.59C115.713 344.743 115.637 344.82 115.33 344.82C115.33 344.667 115.407 344.59 115.56 344.59C115.407 343.823 114.41 342.52 112.57 340.68C110.883 338.84 108.813 336.847 106.36 334.7C103.907 332.4 101.53 330.253 99.23 328.26C96.93 326.113 95.1667 324.503 93.94 323.43Z" fill="#87CEEB"/>
<path d="M347.981 338.61C332.801 338.61 318.848 335.083 306.121 328.03C293.548 320.977 283.505 311.163 275.991 298.59C268.631 285.863 264.951 271.603 264.951 255.81C264.951 240.017 268.631 225.833 275.991 213.26C283.505 200.687 293.548 190.873 306.121 183.82C318.848 176.767 332.801 173.24 347.981 173.24C363.161 173.24 377.038 176.767 389.611 183.82C402.338 190.873 412.305 200.687 419.511 213.26C426.871 225.833 430.551 240.017 430.551 255.81C430.551 271.603 426.871 285.863 419.511 298.59C412.151 311.163 402.185 320.977 389.611 328.03C377.038 335.083 363.161 338.61 347.981 338.61ZM347.981 302.73C360.861 302.73 371.135 298.437 378.801 289.85C386.621 281.263 390.531 269.917 390.531 255.81C390.531 241.55 386.621 230.203 378.801 221.77C371.135 213.183 360.861 208.89 347.981 208.89C334.948 208.89 324.521 213.107 316.701 221.54C309.035 229.973 305.201 241.397 305.201 255.81C305.201 270.07 309.035 281.493 316.701 290.08C324.521 298.513 334.948 302.73 347.981 302.73Z" fill="#FFFF00"/>
</svg>
